<svg width="1335" height="1024" viewBox="0 0 1335 1024" fill="none" xmlns="http://www.w3.org/2000/svg">
<g id="nodejs">
<path id="Vector" d="M1213.61 626.103C1212.82 626.103 1212.04 625.85 1211.33 625.429L1204.12 620.627C1203.04 619.953 1203.56 619.7 1203.94 619.574C1205.36 619.027 1205.66 618.9 1207.2 617.889C1207.35 617.805 1207.58 617.847 1207.73 617.931L1213.27 621.638C1213.46 621.764 1213.76 621.764 1213.95 621.638L1235.62 607.57C1235.81 607.444 1235.96 607.191 1235.96 606.896V578.802C1235.96 578.507 1235.85 578.255 1235.62 578.128L1213.95 564.103C1213.76 563.976 1213.5 563.976 1213.27 564.103L1191.6 578.128C1191.38 578.255 1191.26 578.55 1191.26 578.802V606.896C1191.26 607.149 1191.41 607.401 1191.6 607.528L1197.52 611.361C1200.75 613.172 1202.74 611.024 1202.74 608.918V581.161C1202.74 580.782 1203 580.445 1203.38 580.445H1206.11C1206.45 580.445 1206.75 580.74 1206.75 581.161V608.918C1206.75 613.762 1204.42 616.499 1200.34 616.499C1199.1 616.499 1198.09 616.499 1195.35 614.983L1189.65 611.319C1188.26 610.392 1187.36 608.707 1187.36 606.896V578.802C1187.36 576.991 1188.22 575.264 1189.65 574.38L1211.33 560.312C1212.71 559.427 1214.51 559.427 1215.86 560.312L1237.54 574.38C1238.93 575.306 1239.83 576.991 1239.83 578.802V606.896C1239.83 608.707 1238.96 610.434 1237.54 611.319L1215.86 625.387C1215.22 625.85 1214.44 626.103 1213.61 626.103V626.103ZM1231.12 598.388C1231.12 593.123 1227.97 591.733 1221.3 590.722C1214.55 589.711 1213.88 589.206 1213.88 587.437C1213.88 585.963 1214.44 584.025 1219.42 584.025C1223.89 584.025 1225.54 585.12 1226.21 588.49C1226.29 588.827 1226.51 589.037 1226.81 589.037H1229.62C1229.81 589.037 1229.96 588.953 1230.08 588.827C1230.19 588.658 1230.26 588.49 1230.23 588.279C1229.78 582.467 1226.36 579.771 1219.42 579.771C1213.24 579.771 1209.56 582.719 1209.56 587.605C1209.56 592.954 1213.24 594.387 1219.16 595.06C1226.25 595.861 1226.81 596.998 1226.81 598.556C1226.81 601.294 1224.86 602.431 1220.29 602.431C1214.55 602.431 1213.27 600.831 1212.86 597.63C1212.82 597.293 1212.56 597.04 1212.23 597.04H1209.41C1209.08 597.04 1208.77 597.335 1208.77 597.756C1208.77 601.842 1210.76 606.728 1220.25 606.728C1227.19 606.728 1231.12 603.695 1231.12 598.388V598.388ZM1251.56 577.286C1251.56 579.855 1249.69 581.961 1247.4 581.961C1245.11 581.961 1243.24 579.855 1243.24 577.286C1243.24 574.632 1245.19 572.611 1247.4 572.611C1249.65 572.569 1251.56 574.632 1251.56 577.286ZM1250.89 577.286C1250.89 575.096 1249.31 573.369 1247.36 573.369C1245.45 573.369 1243.88 575.096 1243.88 577.286C1243.88 579.476 1245.45 581.245 1247.36 581.245C1249.31 581.203 1250.89 579.434 1250.89 577.286ZM1249.2 579.897H1248.23C1248.19 579.645 1248.04 578.297 1248.04 578.255C1247.96 577.96 1247.89 577.791 1247.55 577.791H1246.73V579.897H1245.83V574.632H1247.44C1248 574.632 1249.09 574.632 1249.09 576.022C1249.09 576.991 1248.52 577.202 1248.19 577.328C1248.83 577.37 1248.86 577.834 1248.98 578.507C1249.01 578.929 1249.09 579.645 1249.2 579.897V579.897ZM1248.15 576.191C1248.15 575.475 1247.7 575.475 1247.48 575.475H1246.73V576.949H1247.44C1248.04 576.949 1248.15 576.486 1248.15 576.191V576.191ZM1146.49 516.171C1146.49 515.033 1145.96 514.022 1145.1 513.475L1122.11 498.607C1121.74 498.354 1121.29 498.228 1120.84 498.185H1120.61C1120.16 498.185 1119.75 498.354 1119.34 498.607L1096.39 513.475C1095.53 514.022 1095 515.075 1095 516.171L1095.04 556.184C1095.04 556.732 1095.3 557.237 1095.71 557.532C1096.12 557.827 1096.65 557.827 1097.1 557.532L1110.75 548.729C1111.61 548.139 1112.14 547.128 1112.14 546.033V527.332C1112.14 526.237 1112.66 525.184 1113.53 524.637L1119.34 520.888C1119.79 520.593 1120.24 520.467 1120.72 520.467C1121.21 520.467 1121.7 520.593 1122.11 520.888L1127.93 524.637C1128.79 525.184 1129.31 526.237 1129.31 527.332V546.033C1129.31 547.128 1129.84 548.181 1130.7 548.729L1144.35 557.532C1144.76 557.827 1145.33 557.827 1145.74 557.532C1146.15 557.279 1146.41 556.732 1146.41 556.184L1146.49 516.171ZM1272.19 472.493V546.791C1272.19 547.887 1271.66 548.94 1270.8 549.487L1247.81 564.397C1246.95 564.945 1245.9 564.945 1245.04 564.397L1222.05 549.487C1221.19 548.94 1220.66 547.887 1220.66 546.791V516.971C1220.66 515.876 1221.19 514.823 1222.05 514.275L1245.04 499.365C1245.9 498.817 1246.95 498.817 1247.81 499.365L1253.55 503.071C1254.19 503.493 1255.01 502.945 1255.01 502.145V462.552C1255.01 461.373 1256.14 460.615 1257.08 461.204L1270.76 469.797C1271.63 470.302 1272.19 471.355 1272.19 472.493V472.493ZM1254.94 526.785C1254.94 526.49 1254.79 526.237 1254.6 526.111L1246.73 520.972C1246.5 520.846 1246.24 520.846 1246.01 520.972L1238.14 526.111C1237.91 526.237 1237.8 526.49 1237.8 526.785V537.02C1237.8 537.315 1237.95 537.567 1238.14 537.694L1246.01 542.79C1246.24 542.916 1246.5 542.916 1246.69 542.79L1254.56 537.694C1254.79 537.567 1254.9 537.315 1254.9 537.02V526.785H1254.94ZM1333.61 526.49C1334.47 525.942 1335 524.889 1335 523.794V516.592C1335 515.497 1334.47 514.444 1333.61 513.896L1310.78 498.986C1309.91 498.438 1308.86 498.438 1308 498.986L1285.01 513.896C1284.15 514.444 1283.62 515.497 1283.62 516.592V546.412C1283.62 547.55 1284.15 548.56 1285.01 549.108L1307.85 563.724C1308.67 564.271 1309.73 564.271 1310.59 563.724L1324.39 555.089C1325.33 554.499 1325.33 552.983 1324.39 552.393L1301.25 537.483C1300.8 537.188 1300.54 536.683 1300.54 536.135V526.785C1300.54 526.237 1300.8 525.732 1301.25 525.437L1308.45 520.762C1308.86 520.467 1309.43 520.467 1309.84 520.762L1317.04 525.437C1317.45 525.732 1317.75 526.237 1317.75 526.785V534.113C1317.75 535.293 1318.91 536.051 1319.85 535.461L1333.61 526.49V526.49ZM1304.62 527.964C1304.47 528.09 1304.36 528.259 1304.36 528.469V534.198C1304.36 534.408 1304.47 534.619 1304.62 534.703L1309.05 537.567C1309.2 537.694 1309.43 537.694 1309.58 537.567L1314 534.703C1314.15 534.577 1314.26 534.408 1314.26 534.198V528.469C1314.26 528.259 1314.15 528.048 1314 527.964L1309.58 525.1C1309.43 524.974 1309.2 524.974 1309.05 525.1L1304.62 527.964ZM1209.3 546.286V516.634C1209.3 515.539 1208.7 514.486 1207.84 513.938L1184.93 499.112C1184.14 498.607 1183.05 498.522 1182.15 499.112L1159.24 513.938C1158.38 514.486 1157.77 515.497 1157.77 516.634V546.286C1157.77 547.465 1158.49 548.476 1159.27 548.982L1182.23 563.808C1183.13 564.397 1184.17 564.355 1185 563.808L1207.88 548.982C1208.55 548.56 1209.04 547.844 1209.23 547.002C1209.26 546.791 1209.3 546.539 1209.3 546.286ZM1181.44 493.679L1181.14 493.889H1181.55L1181.44 493.679V493.679ZM1210.01 548.518L1209.86 548.224V548.603L1210.01 548.518Z" fill="#215732"/>
</g>
<g id="react-brands 1" clip-path="url(#clip0_0_1)">
<g id="icons8-node-js-240 1">
<path id="Vector_2" d="M120.035 595.095C117.165 595.095 114.32 594.345 111.805 592.895L85.605 577.38C81.69 575.19 83.6 574.415 84.89 573.97C90.11 572.145 91.165 571.73 96.735 568.565C97.32 568.23 98.085 568.35 98.685 568.705L118.815 580.65C119.54 581.045 120.575 581.045 121.245 580.65L199.73 535.345C200.455 534.93 200.93 534.09 200.93 533.225V442.66C200.93 441.755 200.46 440.95 199.715 440.5L121.265 395.23C120.54 394.8 119.575 394.8 118.85 395.23L40.41 440.495C39.65 440.925 39.165 441.77 39.165 442.635V533.205C39.165 534.07 39.635 534.895 40.385 535.305L61.88 547.72C73.55 553.555 80.68 546.68 80.68 539.765V450.38C80.68 449.105 81.68 448.12 82.96 448.12H92.9C94.14 448.12 95.16 449.1 95.16 450.38V539.81C95.16 555.37 86.675 564.31 71.92 564.31C67.38 564.31 63.805 564.31 53.825 559.4L33.235 547.535C28.145 544.585 25 539.08 25 533.21V442.64C25 436.745 28.145 431.245 33.23 428.335L111.8 383.01C116.77 380.2 123.37 380.2 128.305 383.01L206.775 428.355C211.835 431.28 215 436.765 215 442.66V533.23C215 539.105 211.835 544.585 206.77 547.535L128.3 592.855C125.785 594.31 122.935 595.055 120.03 595.055" fill="#6C63FF"/>
<path id="Vector_3" d="M144.28 532.685C109.94 532.685 102.74 516.92 102.74 503.7C102.74 502.445 103.755 501.44 105.015 501.44H115.155C116.275 501.44 117.22 502.255 117.395 503.36C118.925 513.69 123.485 518.9 144.25 518.9C160.79 518.9 167.825 515.165 167.825 506.39C167.825 501.34 165.82 497.59 140.125 495.075C118.63 492.955 105.35 488.22 105.35 471.03C105.35 455.195 118.71 445.765 141.085 445.765C166.215 445.765 178.67 454.49 180.24 473.23C180.3 473.88 180.065 474.505 179.63 474.98C179.2 475.43 178.59 475.705 177.96 475.705H167.765C166.705 475.705 165.78 474.96 165.565 473.935C163.11 463.07 157.175 459.595 141.045 459.595C122.99 459.595 120.89 465.88 120.89 470.595C120.89 476.31 123.365 477.98 147.725 481.205C171.85 484.405 183.305 488.925 183.305 505.88C183.305 522.97 169.04 532.775 144.17 532.775" fill="#6C63FF"/>
</g>
</g>
<g id="Group 2">
<path id="Vector_4" d="M811.925 841.497C808.581 840.412 805.238 839.387 801.895 838.423C802.452 836.193 802.947 833.964 803.442 831.734C811.058 795.816 806.043 766.949 789.14 757.428C772.857 748.328 746.296 757.789 719.425 780.569C716.763 782.799 714.162 785.149 711.686 787.5C710.014 785.933 708.28 784.366 706.547 782.859C678.376 758.512 650.143 748.267 633.241 757.849C617.019 767.01 612.19 794.189 619 828.178C619.681 831.553 620.424 834.868 621.291 838.242C617.329 839.327 613.428 840.532 609.775 841.798C576.713 852.947 553 870.544 553 888.744C553 907.547 578.261 926.41 612.623 937.86C615.409 938.764 618.196 939.668 621.044 940.451C620.115 944.067 619.31 947.623 618.567 951.299C612.066 984.746 617.143 1011.26 633.364 1020.36C650.081 1029.76 678.19 1020.12 705.556 996.799C707.723 994.93 709.89 993.002 712.057 990.953C714.781 993.544 717.629 996.015 720.478 998.426C746.977 1020.6 773.166 1029.58 789.326 1020.48C806.043 1011.08 811.491 982.576 804.433 947.864C803.876 945.212 803.257 942.5 802.576 939.728C804.557 939.186 806.476 938.583 808.396 937.98C844.12 926.47 870 907.848 870 888.744C870 870.484 845.606 852.766 811.925 841.497V841.497ZM728.155 790.332C751.187 770.806 772.671 763.153 782.454 768.637C792.917 774.482 796.941 798.106 790.379 829.142C789.945 831.191 789.512 833.18 788.954 835.169C775.21 832.156 761.279 829.986 747.286 828.781C739.237 817.572 730.446 806.845 720.911 796.78C723.326 794.551 725.678 792.441 728.155 790.332V790.332ZM656.52 920.022C659.678 925.265 662.897 930.508 666.303 935.63C656.644 934.606 647.047 933.099 637.575 931.11C640.299 922.432 643.704 913.453 647.667 904.292C650.515 909.596 653.425 914.839 656.52 920.022V920.022ZM637.76 847.523C646.676 845.595 656.149 844.028 665.993 842.823C662.712 847.825 659.492 852.947 656.458 858.13C653.425 863.252 650.453 868.495 647.667 873.799C643.766 864.819 640.485 856.02 637.76 847.523ZM654.725 889.046C658.811 880.729 663.269 872.593 667.974 864.578C672.68 856.563 677.757 848.789 683.081 841.135C692.369 840.472 701.841 840.111 711.5 840.111C721.159 840.111 730.693 840.472 739.919 841.135C745.181 848.728 750.196 856.503 754.964 864.458C759.731 872.412 764.189 880.548 768.399 888.804C764.251 897.121 759.793 905.317 755.026 913.392C750.32 921.408 745.305 929.182 740.042 936.896C730.817 937.559 721.221 937.86 711.5 937.86C701.779 937.86 692.369 937.559 683.267 937.016C677.881 929.363 672.804 921.528 668.036 913.513C663.269 905.498 658.873 897.362 654.725 889.046ZM766.542 919.901C769.699 914.598 772.671 909.234 775.581 903.81C779.544 912.549 783.011 921.408 786.045 930.508C776.448 932.617 766.727 934.244 756.945 935.329C760.288 930.267 763.446 925.084 766.542 919.901ZM775.457 873.799C772.547 868.495 769.575 863.192 766.48 858.009C763.446 852.887 760.288 847.825 757.007 842.823C766.975 844.028 776.51 845.655 785.425 847.644C782.577 856.563 779.234 865.241 775.457 873.799V873.799ZM711.624 806.001C718.125 812.871 724.254 820.103 729.95 827.576C717.691 827.033 705.371 827.033 693.112 827.576C699.179 819.801 705.432 812.57 711.624 806.001ZM639.804 769.059C650.205 763.153 673.299 771.59 697.631 792.562C699.179 793.888 700.727 795.334 702.337 796.78C692.74 806.845 683.886 817.572 675.776 828.781C661.783 829.986 647.914 832.095 634.169 835.048C633.364 831.975 632.683 828.841 632.002 825.707C626.182 796.539 630.021 774.543 639.804 769.059V769.059ZM624.635 927.916C622.034 927.193 619.496 926.41 616.957 925.566C603.77 921.528 588.786 915.14 577.951 906.763C571.698 902.545 567.488 896.036 566.312 888.744C566.312 877.716 585.876 863.614 614.109 854.032C617.638 852.826 621.229 851.742 624.82 850.717C629.03 863.795 634.107 876.631 639.989 889.046C634.046 901.641 628.907 914.658 624.635 927.916V927.916ZM696.826 986.976C686.611 996.076 674.785 1003.31 661.907 1008.25C655.034 1011.44 647.109 1011.74 640.051 1009.03C630.207 1003.49 626.121 982.215 631.693 953.589C632.374 950.214 633.117 946.839 633.984 943.525C647.852 946.417 661.845 948.406 676.023 949.431C684.196 960.7 693.173 971.488 702.77 981.612C700.789 983.48 698.808 985.288 696.826 986.976ZM711.995 972.331C705.68 965.702 699.365 958.35 693.235 950.455C699.179 950.696 705.309 950.817 711.5 950.817C717.877 950.817 724.13 950.696 730.322 950.395C724.626 958.049 718.496 965.341 711.995 972.331V972.331ZM792.917 990.411C792.36 997.763 788.645 1004.63 782.701 1009.27C772.857 1014.82 751.868 1007.59 729.207 988.663C726.607 986.493 724.007 984.143 721.344 981.733C730.817 971.548 739.547 960.76 747.472 949.431C761.65 948.286 775.767 946.176 789.697 943.103C790.317 945.574 790.874 948.045 791.369 950.455C794.403 963.472 794.898 977.032 792.917 990.411V990.411ZM804.185 925.626C802.452 926.169 800.718 926.711 798.923 927.193C794.589 914.055 789.264 901.219 783.135 888.744C789.078 876.45 794.093 863.795 798.304 850.838C801.523 851.742 804.619 852.706 807.591 853.67C836.443 863.313 856.688 877.655 856.688 888.624C856.688 900.436 835.08 915.682 804.185 925.626ZM711.5 916.586C727.164 916.586 739.857 904.232 739.857 888.985C739.857 873.738 727.164 861.384 711.5 861.384C695.836 861.384 683.143 873.738 683.143 888.985C683.143 904.232 695.836 916.586 711.5 916.586Z" fill="#61DBFB"/>
</g>
<g id="mongodb 1" clip-path="url(#clip1_0_1)">
<g id="mongoDB">
<path id="Vector_5" fill-rule="evenodd" clip-rule="evenodd" d="M882.709 87.5353C882.117 87.6613 881.522 89.0515 881.522 89.8089C881.404 94.8657 881.286 108.264 881.286 117.364C881.286 117.617 881.641 118.122 881.998 118.122C883.779 118.248 888.056 118.374 891.739 118.374C896.847 118.374 899.817 117.617 901.482 116.86C905.757 114.583 907.777 109.654 907.777 104.218C907.777 91.9593 899.699 87.2819 887.699 87.2819C886.868 87.1559 884.494 87.1559 882.709 87.5353V87.5353ZM913.362 144.033C913.362 131.52 904.689 124.568 889.007 124.568C888.294 124.568 883.304 124.442 882.116 124.694C881.759 124.821 881.286 125.075 881.286 125.454C881.286 134.427 881.166 148.711 881.522 154.272C881.759 156.673 883.424 160.086 885.444 161.097C887.581 162.361 892.452 162.613 895.779 162.613C905.164 162.613 913.362 157.052 913.362 144.033V144.033ZM858.476 80.5843C859.663 80.5843 863.226 80.9623 872.374 80.9623C881.047 80.9623 887.937 80.7103 896.372 80.7103C906.707 80.7103 920.964 84.6275 920.964 101.059C920.964 109.148 915.617 115.595 908.609 118.755C908.254 118.881 908.254 119.133 908.609 119.259C918.587 121.915 927.38 128.487 927.38 140.872C927.38 153.007 920.252 160.717 909.916 165.521C903.619 168.427 895.779 169.438 887.819 169.438C881.759 169.438 865.484 168.68 856.456 168.934C855.506 168.553 857.288 164.003 858.118 163.246C860.258 163.118 861.92 162.992 864.178 162.233C867.386 161.35 867.741 160.338 868.216 155.156C868.454 150.732 868.454 135.058 868.454 123.937C868.454 108.643 868.574 98.2789 868.454 93.2235C868.336 89.3063 867.029 88.0407 864.416 87.2819C862.395 86.9039 859.069 86.3971 856.336 86.0191C855.741 85.3863 857.761 81.0883 858.476 80.5843ZM789.926 159.201C792.778 161.601 798.362 162.611 803.352 162.611C809.767 162.611 816.182 161.35 822.36 155.407C828.656 149.342 833.051 139.989 833.051 125.075C833.051 110.791 827.943 99.1623 817.488 92.3387C811.548 88.4187 803.945 86.7779 795.154 86.7779C792.54 86.7779 790.045 86.9039 788.502 87.6613C788.144 87.9147 787.314 89.0515 787.314 89.6829C787.075 92.2113 787.075 111.675 787.075 123.052C787.075 134.806 787.075 151.238 787.314 153.133C787.314 155.03 788.144 157.937 789.927 159.201H789.926ZM762.958 80.5829C765.216 80.5829 773.887 80.9623 778.046 80.9623C785.532 80.9623 790.877 80.5843 805.014 80.5843C816.894 80.5843 826.873 83.9961 834.002 90.4417C842.673 98.4049 847.189 109.402 847.189 122.798C847.189 141.885 838.991 152.881 830.793 159.201C822.598 165.647 811.905 169.438 796.699 169.438C788.62 169.438 774.72 169.186 763.196 169.058H763.077C762.484 167.922 764.027 163.498 764.978 163.372C768.067 162.992 768.899 162.865 770.444 162.235C772.937 161.223 773.414 159.832 773.77 155.156C774.126 146.434 774.007 135.944 774.007 124.063C774.007 115.595 774.126 99.0363 773.887 93.7275C773.532 89.3049 771.75 88.1667 768.186 87.4079C766.404 87.0299 764.027 86.5231 760.702 86.1451C760.226 85.2589 762.364 81.3417 762.958 80.5843V80.5829Z" fill="#8E714E"/>
<path id="Vector_6" fill-rule="evenodd" clip-rule="evenodd" d="M619.209 164.129C616.239 163.75 614.101 163.246 611.487 161.981C611.131 161.728 610.536 160.465 610.536 159.958C610.299 155.534 610.299 142.895 610.299 134.428C610.299 127.602 609.231 121.662 606.498 117.491C603.289 112.686 598.657 109.907 592.716 109.907C587.489 109.907 580.48 113.698 574.658 119.007C574.54 119.133 573.59 120.019 573.708 118.628C573.708 117.238 573.946 114.457 574.065 112.56C574.184 110.791 573.233 109.907 573.233 109.907C569.431 111.929 558.74 114.583 554.818 114.961C551.968 115.595 551.255 118.502 554.226 119.513H554.345C557.55 120.523 559.69 121.662 561.352 122.8C562.54 123.811 562.422 125.201 562.422 126.339C562.54 135.817 562.54 150.353 562.185 158.316C562.066 161.476 561.235 162.613 559.095 163.118L559.333 162.992C557.67 163.372 556.363 163.75 554.343 164.003C553.63 164.762 553.63 168.806 554.343 169.691C555.65 169.691 562.54 169.312 568.244 169.312C576.085 169.312 580.124 169.691 582.143 169.691C582.975 168.68 583.213 164.888 582.738 164.003C580.48 163.877 578.816 163.625 577.273 163.118C575.134 162.611 574.54 161.476 574.42 158.822C574.184 152.121 574.184 137.966 574.184 128.361C574.184 125.706 574.896 124.442 575.608 123.683C578.341 121.156 582.738 119.387 586.658 119.387C590.459 119.387 592.953 120.651 594.855 122.294C597.468 124.568 598.3 127.855 598.656 130.256C599.25 135.691 599.013 146.435 599.013 155.788C599.013 160.843 598.656 162.107 596.876 162.739C596.043 163.118 593.904 163.625 591.409 163.876C590.578 164.762 590.816 168.68 591.409 169.565C594.855 169.565 598.894 169.186 604.834 169.186C612.199 169.186 616.952 169.565 618.854 169.565C619.446 168.806 619.684 165.141 619.209 164.129V164.129ZM652.117 115.849C645.822 115.849 641.9 121.03 641.9 129.118C641.9 137.335 645.345 146.814 655.087 146.814C656.75 146.814 659.84 146.055 661.264 144.286C663.522 142.012 665.067 137.461 665.067 132.657C665.067 122.167 660.195 115.847 652.117 115.847V115.849ZM651.285 171.713C648.91 171.713 647.246 172.472 646.177 173.104C641.187 176.515 638.93 179.802 638.93 183.722C638.93 187.386 640.237 190.292 643.089 192.821C646.534 195.98 651.285 197.498 657.344 197.498C669.462 197.498 674.808 190.546 674.808 183.722C674.808 178.917 672.55 175.757 667.918 173.989C664.592 172.472 658.533 171.713 651.285 171.713V171.713ZM652.117 204.576C644.87 204.576 639.642 202.933 635.129 199.267C630.732 195.728 628.832 190.42 628.832 186.754C628.832 185.744 629.07 182.962 631.209 180.435C632.514 178.917 635.367 176.011 642.139 171.081C642.375 170.955 642.494 170.829 642.494 170.575C642.494 170.323 642.256 170.069 642.019 169.945C636.436 167.67 634.772 164.003 634.296 161.981V161.728C634.179 160.969 633.941 160.212 635.01 159.453C635.842 158.822 637.03 158.063 638.336 157.179C640.356 155.914 642.494 154.524 643.801 153.385C644.039 153.133 644.039 152.881 644.039 152.628C644.039 152.375 643.801 152.121 643.562 151.997C635.249 149.089 631.09 142.516 631.09 132.657C631.09 126.212 633.822 120.397 638.692 116.732C642.019 113.952 650.335 110.539 655.8 110.539H656.157C661.74 110.665 664.829 111.929 669.224 113.572C671.6 114.457 673.858 114.835 676.948 114.835C681.58 114.835 683.6 113.319 685.262 111.551C685.382 111.803 685.62 112.436 685.738 114.078C685.857 115.721 685.382 118.122 684.193 119.892C683.243 121.282 681.105 122.294 678.967 122.294H678.372C676.233 122.041 675.282 121.788 675.282 121.788L674.808 122.041C674.69 122.294 674.808 122.546 674.927 122.926L675.047 123.179C675.283 124.316 675.758 127.728 675.758 128.614C675.758 138.978 671.838 143.527 667.68 146.94C663.64 150.1 659.008 152.121 653.78 152.628C653.662 152.628 653.188 152.628 652.117 152.754C651.524 152.754 650.692 152.881 650.572 152.881H650.454C649.504 153.133 647.128 154.398 647.128 156.545C647.128 158.441 648.197 160.717 653.305 161.097C654.374 161.223 655.442 161.223 656.632 161.35C663.403 161.854 671.838 162.487 675.758 163.877C681.223 166.025 684.668 171.207 684.668 177.401C684.668 186.756 678.373 195.476 667.918 200.91C662.81 203.312 657.7 204.576 652.117 204.576V204.576ZM719.833 116.48C717.339 116.48 715.081 117.11 713.418 118.374C708.786 121.408 706.41 127.476 706.41 136.322C706.41 152.881 714.25 164.51 725.418 164.51C728.744 164.51 731.358 163.498 733.614 161.476C737.059 158.441 738.842 152.375 738.842 143.906C738.842 127.476 731.12 116.479 719.834 116.479L719.833 116.48ZM721.973 170.576C701.776 170.576 694.53 154.777 694.53 139.989C694.53 129.625 698.45 121.662 706.29 115.973C711.874 112.308 718.528 110.287 724.468 110.287C739.911 110.287 750.722 122.041 750.722 138.978C750.722 150.479 746.446 159.579 738.248 165.141C734.328 167.922 727.556 170.576 721.971 170.576H721.973V170.576ZM510.269 116.479C507.774 116.479 505.517 117.11 503.852 118.374C499.22 121.408 496.844 127.476 496.844 136.322C496.844 152.881 504.684 164.51 515.852 164.51C519.179 164.51 521.792 163.498 524.05 161.476C527.494 158.441 529.277 152.375 529.277 143.906C529.277 127.476 521.674 116.479 510.269 116.479ZM512.407 170.576C492.211 170.576 484.964 154.777 484.964 139.989C484.964 129.625 488.884 121.662 496.724 115.973C502.309 112.308 508.962 110.287 514.902 110.287C530.347 110.287 541.157 122.041 541.157 138.978C541.157 150.479 536.88 159.579 528.682 165.141C524.88 167.922 518.109 170.576 512.407 170.576ZM376.617 169.312C376.379 168.934 376.141 167.796 376.26 166.405C376.26 165.393 376.499 164.762 376.617 164.51C379.112 164.129 380.419 163.75 381.844 163.372C384.22 162.739 385.17 161.35 385.289 158.19C385.647 150.606 385.647 136.196 385.527 126.212V125.958C385.527 124.821 385.527 123.43 384.22 122.419C382.319 121.156 380.062 120.019 377.092 119.132C376.024 118.755 375.31 118.122 375.429 117.365C375.429 116.606 376.142 115.721 377.687 115.468C381.607 115.089 391.822 112.436 395.862 110.539C396.1 110.791 396.457 111.551 396.457 112.562L396.338 113.95C396.219 115.342 396.1 116.986 396.1 118.628C396.1 119.133 396.577 119.513 397.05 119.513C397.288 119.513 397.527 119.387 397.764 119.259C405.367 112.94 412.257 110.665 415.82 110.665C421.643 110.665 426.158 113.572 429.603 119.639C429.84 120.019 430.078 120.145 430.435 120.145C430.671 120.145 431.027 120.019 431.146 119.766C438.156 114.078 445.166 110.665 449.798 110.665C460.846 110.665 467.381 119.387 467.381 134.175C467.381 138.345 467.381 143.78 467.263 148.711C467.263 153.133 467.144 157.178 467.144 160.086C467.144 160.716 467.974 162.739 469.281 163.118C470.944 164.003 473.203 164.382 476.172 164.888H476.291C476.529 165.773 476.054 169.058 475.579 169.691C474.866 169.691 473.796 169.691 472.609 169.565C469.602 169.398 466.591 169.314 463.579 169.312C456.214 169.312 452.413 169.438 448.728 169.691C448.493 168.68 448.373 165.647 448.728 164.888C450.868 164.51 451.936 164.129 453.244 163.751C455.621 162.992 456.214 161.854 456.334 158.568C456.334 156.167 456.808 135.691 456.095 130.762C455.383 125.706 451.818 119.766 443.977 119.766C441.007 119.766 436.375 121.03 431.86 124.694C431.623 124.947 431.383 125.579 431.383 125.958V126.086C431.86 128.739 431.86 131.774 431.86 136.45V144.665C431.86 150.353 431.74 155.662 431.86 159.705C431.86 162.487 433.405 163.118 434.711 163.625C435.424 163.75 435.898 163.877 436.493 164.003C437.561 164.256 438.631 164.51 440.295 164.888C440.533 165.395 440.533 167.037 440.176 168.427C440.056 169.186 439.818 169.564 439.7 169.691C435.661 169.565 431.503 169.438 425.445 169.438C423.663 169.438 420.573 169.565 417.96 169.565C415.82 169.565 413.802 169.691 412.615 169.691C412.495 169.438 412.257 168.554 412.257 167.163C412.257 166.026 412.495 165.141 412.733 164.888C413.327 164.762 413.802 164.636 414.396 164.636C415.82 164.382 417.01 164.129 418.197 163.877C420.218 163.246 420.93 162.107 421.048 159.327C421.405 153.007 421.762 134.934 420.93 130.382C419.505 123.052 415.585 119.387 409.287 119.387C405.605 119.387 400.97 121.282 397.17 124.317C396.575 124.821 396.1 126.084 396.1 127.222V134.68C396.1 143.78 396.1 155.156 396.219 160.086C396.338 161.601 396.812 163.372 399.545 164.003C400.14 164.129 401.09 164.382 402.278 164.51L404.415 164.888C404.655 165.647 404.535 168.68 404.06 169.691C402.872 169.691 401.447 169.565 399.782 169.565C397.288 169.438 394.08 169.312 390.517 169.312C386.359 169.312 383.389 169.438 381.012 169.565C379.349 169.312 378.042 169.312 376.617 169.312V169.312Z" fill="#58AA50"/>
</g>
</g>
<g id="undraw_duplicate_re_d39g 1" clip-path="url(#clip2_0_1)">
<path id="Vector_7" d="M548.698 666.931H557.658L561.92 632.372L548.697 632.373L548.698 666.931Z" fill="#A0616A"/>
<path id="Vector_8" d="M546.413 664.006L564.058 664.005H564.058C567.04 664.006 569.9 665.19 572.009 667.299C574.118 669.408 575.303 672.268 575.303 675.25V675.615L546.413 675.616L546.413 664.006Z" fill="#2F2E41"/>
<path id="Vector_9" d="M607.884 666.931H616.844L621.107 632.372L607.883 632.373L607.884 666.931Z" fill="#A0616A"/>
<path id="Vector_10" d="M605.599 664.006L623.244 664.005H623.244C626.227 664.006 629.087 665.19 631.195 667.299C633.304 669.408 634.489 672.268 634.489 675.25V675.615L605.599 675.616L605.599 664.006Z" fill="#2F2E41"/>
<path id="Vector_11" d="M827.062 675.67H424V677H827.062V675.67Z" fill="#E6E6E6"/>
<path id="Vector_12" d="M541.196 659.437H564.406L579.24 529.545L606.515 659.437H622.175V504.545L547.718 482.262L541.196 659.437Z" fill="#6C63FF"/>
<path id="Vector_13" d="M580.77 367.975C591.948 367.975 601.01 358.913 601.01 347.734C601.01 336.556 591.948 327.494 580.77 327.494C569.592 327.494 560.53 336.556 560.53 347.734C560.53 358.913 569.592 367.975 580.77 367.975Z" fill="#A0616A"/>
<path id="Vector_14" d="M549.348 485.523C571.066 502.507 595.039 511.068 622.175 507.806C610.714 467.565 607.315 427.629 618.371 388.239L595.545 377.913L569.886 376.283L551.237 381.767C548.614 382.54 546.318 384.153 544.701 386.359C543.085 388.565 542.239 391.241 542.292 393.975C542.951 427.567 540.718 459.005 549.348 485.523Z" fill="#E6E6E6"/>
<path id="Vector_15" d="M561.398 337.556C563.346 333.882 565.82 326.56 569.75 325.202C571.933 324.478 574.188 323.998 576.477 323.769L583.157 326.339L579.521 323.511C580.229 323.469 580.936 323.434 581.643 323.407L586.151 325.141L583.845 323.347C588.047 323.304 592.384 323.741 595.64 326.299C598.416 328.48 601.166 336.741 601.611 340.243C602.086 343.593 601.92 347.003 601.121 350.29L599.979 351.376C599.58 350.46 599.28 349.504 599.084 348.525C598.674 346.695 597.888 344.97 596.776 343.461C595.663 341.951 594.248 340.69 592.621 339.758L592.559 339.723C590.645 338.645 588.322 338.695 586.126 338.774L575.699 339.149C573.191 339.24 570.489 339.398 568.534 340.972C567.213 342.035 566.421 343.603 565.669 345.122C564.697 347.084 562.798 354.482 562.798 354.482C562.798 354.482 561.723 353.085 561.208 354.125C560.383 351.413 559.881 348.613 559.713 345.783C559.548 342.941 560.129 340.105 561.398 337.556V337.556Z" fill="#442D22"/>
<path id="Vector_16" d="M984.42 468.26H750.758C746.763 468.255 742.933 466.666 740.108 463.841C737.283 461.016 735.693 457.186 735.689 453.191V292.069C735.693 288.074 737.283 284.244 740.108 281.419C742.933 278.594 746.763 277.005 750.758 277H984.42C988.416 277.005 992.246 278.594 995.071 281.419C997.896 284.244 999.485 288.074 999.49 292.069V453.191C999.485 457.186 997.896 461.016 995.071 463.841C992.246 466.666 988.416 468.255 984.42 468.26V468.26ZM750.758 278.33C747.116 278.334 743.623 279.783 741.048 282.359C738.472 284.934 737.023 288.426 737.019 292.069V453.191C737.023 456.833 738.472 460.325 741.048 462.901C743.623 465.477 747.115 466.925 750.758 466.929H984.42C988.063 466.925 991.555 465.477 994.131 462.901C996.707 460.325 998.155 456.833 998.16 453.191V292.069C998.155 288.426 996.707 284.934 994.131 282.359C991.555 279.783 988.063 278.334 984.42 278.33H750.758Z" fill="#F0F0F0"/>
<path id="Vector_17" d="M711.083 481.786V320.665C711.088 316.846 712.607 313.184 715.307 310.484C718.007 307.784 721.669 306.265 725.488 306.26H959.15C962.969 306.265 966.63 307.784 969.33 310.484C972.031 313.184 973.55 316.846 973.554 320.665V481.786C973.55 485.605 972.031 489.266 969.33 491.967C966.63 494.667 962.969 496.186 959.15 496.19H725.488C721.669 496.186 718.007 494.667 715.307 491.967C712.607 489.266 711.088 485.605 711.083 481.786V481.786Z" fill="#E4E4E4"/>
<path id="Vector_18" d="M720.274 482.07V320.381C720.275 319.204 720.743 318.075 721.576 317.243C722.408 316.41 723.537 315.942 724.714 315.941H959.924C961.101 315.942 962.23 316.41 963.062 317.243C963.894 318.075 964.363 319.204 964.364 320.381V482.07C964.363 483.247 963.894 484.375 963.062 485.208C962.23 486.04 961.101 486.509 959.924 486.51H724.714C723.537 486.509 722.408 486.04 721.576 485.208C720.743 484.376 720.275 483.247 720.274 482.07Z" fill="white"/>
<path id="Vector_19" d="M815.045 529.556C818.66 529.556 821.591 526.625 821.591 523.01C821.591 519.395 818.66 516.464 815.045 516.464C811.43 516.464 808.499 519.395 808.499 523.01C808.499 526.625 811.43 529.556 815.045 529.556Z" fill="#E6E6E6"/>
<path id="Vector_20" d="M842.319 529.556C845.934 529.556 848.865 526.625 848.865 523.01C848.865 519.395 845.934 516.464 842.319 516.464C838.704 516.464 835.773 519.395 835.773 523.01C835.773 526.625 838.704 529.556 842.319 529.556Z" fill="#E6E6E6"/>
<path id="Vector_21" d="M869.593 529.556C873.208 529.556 876.138 526.625 876.138 523.01C876.138 519.395 873.208 516.464 869.593 516.464C865.978 516.464 863.047 519.395 863.047 523.01C863.047 526.625 865.978 529.556 869.593 529.556Z" fill="#E6E6E6"/>
<path id="Vector_22" d="M842.319 448.748C832.92 448.748 823.732 445.961 815.917 440.739C808.102 435.517 802.011 428.095 798.414 419.411C794.817 410.728 793.876 401.173 795.71 391.954C797.543 382.736 802.069 374.268 808.715 367.622C815.362 360.976 823.829 356.45 833.048 354.616C842.266 352.783 851.821 353.724 860.505 357.32C869.188 360.917 876.61 367.008 881.832 374.823C887.054 382.638 889.841 391.826 889.841 401.225V401.225C889.827 413.825 884.815 425.904 875.906 434.813C866.997 443.722 854.918 448.733 842.319 448.748V448.748Z" fill="#6C63FF"/>
<path id="Vector_23" d="M861.07 396.538H847.007V382.474C847.005 381.232 846.51 380.042 845.631 379.165C844.752 378.287 843.561 377.794 842.319 377.794C841.077 377.794 839.886 378.287 839.007 379.165C838.128 380.042 837.633 381.232 837.631 382.474V396.538H823.568C822.326 396.54 821.135 397.035 820.258 397.913C819.381 398.792 818.888 399.983 818.888 401.225C818.888 402.467 819.381 403.658 820.258 404.537C821.135 405.416 822.326 405.911 823.568 405.913H837.631V419.977C837.633 421.218 838.128 422.409 839.007 423.286C839.886 424.164 841.077 424.656 842.319 424.656C843.561 424.656 844.752 424.164 845.631 423.286C846.51 422.409 847.005 421.218 847.007 419.977V405.913H861.07C861.686 405.915 862.296 405.795 862.866 405.56C863.435 405.326 863.953 404.981 864.389 404.546C864.826 404.112 865.172 403.595 865.409 403.026C865.646 402.458 865.768 401.848 865.769 401.232C865.769 400.616 865.649 400.006 865.414 399.436C865.179 398.867 864.834 398.35 864.399 397.914C863.963 397.478 863.447 397.132 862.878 396.896C862.309 396.66 861.699 396.538 861.083 396.538H861.07Z" fill="white"/>
<path id="Vector_24" d="M562.079 498.791C562.074 497.777 561.847 496.776 561.413 495.859C560.98 494.942 560.351 494.131 559.57 493.484C558.79 492.836 557.877 492.368 556.895 492.111C555.914 491.855 554.888 491.817 553.891 491.999L541.744 470.545L536.732 480.817L548.341 500.577C548.759 502.232 549.77 503.677 551.182 504.637C552.594 505.597 554.309 506.006 556.003 505.786C557.696 505.566 559.25 504.732 560.37 503.443C561.49 502.154 562.098 500.499 562.079 498.791V498.791Z" fill="#A0616A"/>
<path id="Vector_25" d="M616.391 522.642C615.912 521.748 615.634 520.76 615.578 519.747C615.522 518.735 615.688 517.722 616.066 516.781C616.443 515.839 617.023 514.992 617.763 514.299C618.503 513.606 619.386 513.083 620.351 512.768L620.8 488.118L631.365 495.364L629.319 517.662C629.741 519.316 629.541 521.068 628.757 522.586C627.974 524.103 626.661 525.28 625.067 525.894C623.474 526.508 621.71 526.516 620.111 525.916C618.512 525.317 617.189 524.152 616.391 522.642H616.391Z" fill="#A0616A"/>
<path id="Vector_26" d="M542.827 495.849L551.522 487.697L547.06 443.675L552.223 381.446C541.007 384.971 528.964 394.44 526.981 406.028L519.886 447.479L542.827 495.849Z" fill="#E6E6E6"/>
<path id="Vector_27" opacity="0.2" d="M547.875 420.033L540.81 448.294L551.522 488.397L544.614 450.468L547.875 420.033Z" fill="black"/>
<path id="Vector_28" d="M617.827 511.067L631.958 512.697L628.649 407.768C628.502 403.08 627.007 398.533 624.343 394.671C621.68 390.81 617.961 387.797 613.631 385.993L608.588 383.891L609.947 433.077L617.827 511.067Z" fill="#E6E6E6"/>
<path id="Vector_29" opacity="0.2" d="M612.537 434.684L617.991 495.241L608.756 435.106L612.537 434.684Z" fill="black"/>
</g>
<defs>
<clipPath id="clip0_0_1">
<rect width="358" height="357" fill="white" transform="translate(0 387)"/>
</clipPath>
<clipPath id="clip1_0_1">
<rect width="659.137" height="200" fill="white" transform="translate(382)"/>
</clipPath>
<clipPath id="clip2_0_1">
<rect width="575.49" height="400" fill="white" transform="translate(424 277)"/>
</clipPath>
</defs>
</svg>
